<svg width="1207" height="1035" viewBox="0 0 1207 1035" fill="none" xmlns="http://www.w3.org/2000/svg">
<path d="M21.4082 634.339C55.6738 728.256 -7.13597 559.292 21.4082 634.493V634.339Z" fill="#CA1826"/>
<path fill-rule="evenodd" clip-rule="evenodd" d="M1102.05 831.746C1057.72 898.957 998.387 955.687 928.426 997.761C858.465 1039.83 779.653 1066.18 697.789 1074.87C790.955 1038.76 880.783 964.757 909.359 867.762C847.42 947.959 761.077 1007.33 662.475 1037.53C559.666 1066.34 449.886 1061.29 350.365 1023.15C245.574 983.381 155.181 914.631 90.448 825.467C154.612 863.126 226.085 887.612 300.429 897.405C313.835 899.168 327.334 900.196 340.861 900.483H340.864C348.237 900.483 355.642 900.483 363.111 899.96C366.766 899.08 370.615 899.338 374.109 900.699C373.019 900.202 371.958 899.647 370.931 899.037C382.184 897.057 393.198 893.963 403.798 889.802C244.866 874.873 78.0831 789.144 21.5988 634.616C-4.06041 558.519 -6.4775 476.865 14.6378 399.47C18.729 443.123 31.9904 485.505 53.6077 524.015C73.8903 564.75 108.975 596.809 152.145 614.054C150.046 610.197 148.597 606.04 147.854 601.741C147.72 602.164 147.452 602.544 147.182 602.927C146.942 603.268 146.701 603.611 146.551 603.988C86.0585 527.777 52.0821 434.951 49.5074 338.859C53.7291 249.3 93.6013 164.804 160.76 103.097C153.993 137.441 151.284 172.42 152.686 207.357C150.717 241.238 162.229 274.561 184.853 300.474C172.564 252.334 172.4 202.039 184.376 153.826C196.353 105.613 220.118 60.8924 253.671 23.4323C323.497 -45.5404 416.832 -87.5828 516.29 -94.8643C481.19 -81.5206 447.429 -65.0857 415.431 -45.7665C399.862 -35.803 385.795 -23.7963 373.632 -10.0897C367.283 -2.7779 361.673 5.10782 356.881 13.4588C351.464 24.018 347.601 35.2603 345.406 46.8577C362.476 25.9259 382.67 7.57311 405.324 -7.59634C428.205 -21.6198 452.849 -32.7409 478.655 -40.6873C534.832 -57.8339 593.282 -66.9896 652.176 -67.8682C709.678 -69.9088 767.067 -61.5041 821.375 -43.0884C874.012 -25.4165 923.652 -0.281113 968.673 31.4973C992.612 49.6035 1015.36 69.1368 1036.79 89.9838C1035.27 88.6291 1033.76 87.2709 1032.24 85.9116C1029.29 83.2554 1026.32 80.595 1023.31 77.9479C1028.08 82.7807 1032.85 87.6752 1037.2 92.785C957.803 16.0203 851.22 -28.6166 739.08 -32.0683C625.227 -35.2058 514.428 3.84517 429.291 77.1168C380.049 119.93 340.984 172.578 314.791 231.43C288.598 290.282 275.9 353.936 277.574 418.001C292.153 377.031 314.094 338.88 342.386 305.306C350.964 294.888 360.11 284.921 369.786 275.448C373.336 271.148 377.748 267.588 382.755 264.982C370.846 263.027 358.682 263.027 346.773 264.982C379.239 216.464 428.07 180.347 484.948 162.784C498.934 158.536 508.121 155.92 514.255 154.257C498.013 148.665 478.621 147.235 465.519 146.269C446.674 144.879 440.842 144.449 476.112 133.972C521.013 119.751 568.343 114.127 615.463 117.411C597.236 77.5784 543.619 57.8448 543.704 57.6093C543.737 57.5184 551.788 60.3385 572.996 66.0351C774.808 120.274 895.691 348.125 895.691 348.125L894.356 347.601C921.645 396.418 944.706 447.342 963.301 499.851C968.133 513.087 972.582 526.509 976.524 540.022C978.463 546.609 980.275 553.258 981.864 559.938C983.325 562.79 984.153 565.907 984.296 569.088C984.438 572.269 983.891 575.444 982.69 578.408C968.172 600.134 947.596 617.434 923.345 628.306C896.784 633.626 869.154 630.382 844.674 619.071C815.198 610.719 786.113 601.279 757.421 590.751C730.576 582.137 704.517 571.378 679.512 558.584C656.737 545.394 636.196 528.886 618.61 509.64C581.652 471.378 556.407 423.92 545.692 372.566C543.868 362.355 543.197 351.982 543.69 341.63C536.435 385.463 538.775 430.284 550.559 473.185C562.344 516.086 583.308 556.11 612.094 590.659C639.266 623.361 673.094 650.3 711.475 669.803C749.855 689.306 791.968 700.955 835.195 704.027C878.423 707.099 921.84 701.527 962.749 687.659C1003.66 673.791 1041.18 651.922 1073 623.411C1105.11 594.736 1130.93 560.082 1148.9 521.522C1159.05 500.717 1165.76 478.499 1168.8 455.678C1168.8 455.678 1185.01 322.852 1142.1 244.973C1152.74 263.191 1161.9 282.191 1169.47 301.797C1179.32 329.003 1187.49 356.757 1193.91 384.91C1205.77 439.962 1209.29 496.393 1204.37 552.427C1195.05 652.44 1159.86 748.566 1102.05 831.931V831.746ZM840.288 415.199C836.05 416.474 831.487 416.278 827.383 414.645V414.83C822.754 410.796 819.388 405.584 817.668 399.788C815.949 393.992 815.945 387.845 817.656 382.047C817.646 372.285 815.001 362.695 809.983 354.228C804.964 345.761 797.748 338.712 789.048 333.78C802.202 335.062 814.652 340.153 824.773 348.39C834.895 356.627 842.217 367.626 845.787 379.954C855.958 403.071 863.587 438.44 841.973 458.172C847.667 448.461 849.337 437.017 846.645 426.158C846.05 423.149 845.265 420.178 844.293 417.262C844.293 414.03 842.958 413.353 840.288 415.199ZM818.355 375.378V375.152C818.355 375.152 818.35 375.205 818.35 375.272C818.35 375.306 818.351 375.343 818.355 375.378ZM818.359 375.409C818.357 375.399 818.356 375.389 818.355 375.378V375.459L818.359 375.409ZM818.359 375.409C818.54 373.218 818.632 372.15 818.385 375.49C818.373 375.47 818.365 375.441 818.359 375.409ZM818.35 376.228L818.365 376.073C818.378 375.94 818.39 375.81 818.403 375.682L818.419 375.521C818.405 375.517 818.394 375.506 818.385 375.49L818.355 375.89C818.355 375.999 818.353 376.112 818.35 376.228ZM818.35 376.228C818.106 378.772 817.815 382.078 817.815 382.078C817.904 381.08 817.998 380.189 818.081 379.393C818.216 378.108 818.325 377.07 818.35 376.228Z" fill="#CA1826"/>
</svg>
