<svg width="229" height="47" viewBox="0 0 229 47" fill="none" xmlns="http://www.w3.org/2000/svg">
<path fill-rule="evenodd" clip-rule="evenodd" d="M218.753 36.4903V9.91522H220.526V34.8958H229V36.4903H218.751H218.753ZM211.396 30.6051H202.996L201.648 36.4903H200.031L205.926 9.87415H208.507L214.518 36.4903H212.746L211.396 30.6051ZM207.157 11.8818L203.266 29.0819H211.126L207.157 11.8818ZM192.556 36.4903H190.783V11.5013H185.273V9.90677H198.029V11.5013H192.556V36.4903ZM179.726 9.91522H181.498V36.4903H179.726V9.91522ZM169.402 36.721C165.28 36.721 163.584 33.8352 163.584 30V16.4044C163.584 12.5691 165.28 9.68329 169.402 9.68329C173.524 9.68329 175.22 12.5691 175.22 16.4044V18.3782H173.525V16.2908C173.525 13.4437 172.406 11.279 169.442 11.279C166.478 11.279 165.357 13.4437 165.357 16.2908V30.1111C165.357 32.9595 166.476 35.0855 169.442 35.0855C172.407 35.0855 173.525 32.9595 173.525 30.1111V24.3781H169.942V22.7836H175.22V29.9975C175.219 33.8328 173.525 36.7186 169.401 36.7186L169.402 36.721ZM157.304 9.91522H159.077V36.4903H157.304V9.91522ZM146.865 36.4903H140.931V9.91522H146.865C151.026 9.91522 152.835 12.6102 152.835 16.5203V29.8852C152.835 33.7942 151.026 36.4903 146.865 36.4903ZM151.064 16.4382C151.064 13.5149 149.793 11.5025 146.826 11.5025H142.703V34.8958H146.826C149.831 34.8958 151.064 32.8834 151.064 29.9601V16.443V16.4382ZM126.695 36.7947C122.533 36.7947 120.376 34.3655 120.376 30.1123V28.4791H124.383V30.3768C124.383 32.2745 125.231 32.9595 126.579 32.9595C127.928 32.9595 128.776 32.2745 128.776 30.3768C128.776 24.9096 120.492 23.8853 120.492 16.2908C120.492 12.0376 122.607 9.6084 126.734 9.6084C130.861 9.6084 132.975 12.0376 132.975 16.2908V17.1267H128.969V16.0251C128.969 14.1262 128.198 13.405 126.854 13.405C125.511 13.405 124.74 14.1298 124.74 16.0251C124.74 21.4935 133.024 22.5179 133.024 30.1111C133.014 34.3643 130.862 36.7947 126.695 36.7947ZM110.283 36.8322C106.121 36.8322 103.963 34.403 103.963 30.1497V9.9128H108.202V30.4155C108.202 32.3144 109.05 32.9981 110.398 32.9981C111.747 32.9981 112.594 32.3144 112.594 30.4155V9.9128H116.601V30.1497C116.601 34.4018 114.443 36.8322 110.283 36.8322ZM93.6005 36.4903H86.8963V9.91522H93.6005C97.8382 9.91522 99.9192 12.2309 99.9192 16.4841V29.9214C99.9192 34.1735 97.8382 36.4903 93.6005 36.4903ZM95.6815 16.2908C95.6815 14.3919 94.8717 13.7094 93.5234 13.7094H91.134V32.6937H93.5234C94.8717 32.6937 95.6815 32.01 95.6815 30.1111V16.2908ZM78.0353 9.9128H82.2742V36.4879H78.0353V9.9128ZM67.5187 36.4879H60.853V9.9128H67.2488C71.6407 9.9128 73.5289 11.9241 73.5289 16.0251V16.9733C73.5289 19.7081 72.6818 21.4536 70.7925 22.327C73.0649 23.2004 73.9518 25.2128 73.9518 28.0225V30.186C73.953 34.2882 71.7564 36.4903 67.5187 36.4903V36.4879ZM69.2911 16.4358C69.2911 14.5381 68.6357 13.7022 67.1331 13.7022H65.0907V20.7265H66.7475C68.3272 20.7265 69.2911 20.0428 69.2911 17.918V16.443V16.4358ZM69.714 27.7495C69.714 25.2829 68.9056 24.5231 66.9777 24.5231H65.0895V32.6865H67.5175C68.9429 32.6865 69.7128 32.0414 69.7128 30.0664V27.7568L69.714 27.7495Z" fill="black"/>
<path d="M0.808836 28.9508C2.1282 32.6795 -0.290227 25.9713 0.808836 28.9569V28.9508Z" fill="#DE0A36"/>
<path fill-rule="evenodd" clip-rule="evenodd" d="M42.4178 36.7883C40.7108 39.4567 38.4264 41.7089 35.7326 43.3793C33.0389 45.0498 30.0043 46.0958 26.8522 46.4406C30.4395 45.007 33.8982 42.069 34.9985 38.2181C32.6136 41.4021 29.289 43.7593 25.4925 44.9581C21.5339 46.1023 17.3069 45.9015 13.475 44.3874C9.4401 42.8084 5.95964 40.0789 3.46714 36.5389C5.93773 38.0341 8.6897 39.0062 11.5522 39.395C12.0684 39.465 12.5882 39.5058 13.109 39.5172C13.393 39.5172 13.6781 39.5172 13.9658 39.4965C14.1065 39.4615 14.2547 39.4718 14.3892 39.5258C14.3472 39.5061 14.3064 39.484 14.2668 39.4598C14.7002 39.3812 15.1242 39.2584 15.5324 39.0932C9.41285 38.5004 2.99105 35.0968 0.816175 28.9618C-0.171806 25.9406 -0.264873 22.6988 0.548148 19.626C0.705679 21.3591 1.21629 23.0418 2.04865 24.5707C2.82961 26.188 4.18051 27.4608 5.84273 28.1454C5.7619 27.9923 5.70613 27.8273 5.67751 27.6566C5.67233 27.6734 5.66202 27.6885 5.65165 27.7037C5.6424 27.7172 5.6331 27.7308 5.62733 27.7458C3.29813 24.7201 1.98991 21.0347 1.89077 17.2197C2.05332 13.664 3.58856 10.3093 6.17442 7.85945C5.91387 9.22298 5.80958 10.6117 5.86355 11.9988C5.78774 13.3439 6.23098 14.6669 7.10213 15.6957C6.62892 13.7845 6.62262 11.7877 7.08375 9.87349C7.54489 7.95932 8.45995 6.18384 9.75187 4.69661C12.4405 1.95826 16.0342 0.289091 19.8637 0C18.5123 0.529772 17.2123 1.18227 15.9803 1.94928C15.3808 2.34485 14.8392 2.82154 14.3709 3.36572C14.1264 3.65601 13.9104 3.96909 13.7259 4.30064C13.5173 4.71986 13.3686 5.1662 13.284 5.62664C13.9413 4.79561 14.7189 4.06697 15.5911 3.46471C16.4721 2.90795 17.421 2.46642 18.4146 2.15093C20.5777 1.47018 22.8282 1.10668 25.0959 1.0718C27.31 0.990783 29.5197 1.32447 31.6107 2.0556C33.6375 2.75721 35.5488 3.75514 37.2823 5.0168C38.204 5.73565 39.08 6.51116 39.9051 7.33883C39.8467 7.28503 39.7884 7.23109 39.73 7.1771C39.6161 7.07166 39.5019 6.96606 39.3862 6.86098C39.5698 7.05285 39.7533 7.24717 39.921 7.45004C36.8638 4.40233 32.7599 2.63016 28.4421 2.49313C24.0583 2.36856 19.7921 3.91896 16.5139 6.82798C14.6179 8.52774 13.1138 10.618 12.1052 12.9545C11.0967 15.291 10.6078 17.8182 10.6722 20.3617C11.2336 18.7352 12.0784 17.2205 13.1678 15.8876C13.498 15.4739 13.8502 15.0782 14.2228 14.7021C14.3595 14.5314 14.5293 14.39 14.7221 14.2866C14.2636 14.209 13.7952 14.209 13.3367 14.2866C14.5867 12.3603 16.4669 10.9264 18.657 10.2291C19.1955 10.0605 19.5492 9.95661 19.7854 9.89061C19.16 9.66858 18.4133 9.61181 17.9089 9.57345C17.1833 9.51828 16.9587 9.50121 18.3167 9.08524C20.0456 8.52066 21.868 8.29735 23.6823 8.42774C22.9805 6.84631 20.916 6.06285 20.9193 6.0535C20.9206 6.04989 21.2306 6.16185 22.0472 6.38802C29.8177 8.5414 34.4722 17.5875 34.4722 17.5875L34.4208 17.5668C35.4715 19.5049 36.3595 21.5267 37.0755 23.6114C37.2615 24.1369 37.4328 24.6697 37.5846 25.2062C37.6592 25.4678 37.729 25.7317 37.7902 25.9969C37.8465 26.1102 37.8784 26.2339 37.8838 26.3602C37.8893 26.4865 37.8683 26.6125 37.822 26.7302C37.263 27.5928 36.4707 28.2796 35.537 28.7113C34.5143 28.9225 33.4504 28.7937 32.5079 28.3446C31.3729 28.013 30.253 27.6382 29.1482 27.2203C28.1146 26.8783 27.1112 26.4511 26.1485 25.9432C25.2715 25.4195 24.4806 24.7641 23.8035 24C22.3805 22.4809 21.4084 20.5967 20.9959 18.5579C20.9256 18.1525 20.8998 17.7407 20.9187 17.3297C20.6394 19.0699 20.7295 20.8494 21.1833 22.5527C21.637 24.2559 22.4442 25.8449 23.5526 27.2166C24.5988 28.5149 25.9013 29.5845 27.3791 30.3588C28.8569 31.1331 30.4785 31.5956 32.1429 31.7175C33.8073 31.8395 35.479 31.6183 37.0542 31.0677C38.6294 30.5171 40.0743 29.6489 41.2991 28.5169C42.5358 27.3785 43.5298 26.0026 44.2218 24.4717C44.6125 23.6457 44.8711 22.7636 44.988 21.8576C44.988 21.8576 45.6122 16.5842 43.9599 13.4922C44.3698 14.2155 44.7221 14.9698 45.0137 15.7482C45.3932 16.8284 45.7075 17.9302 45.9549 19.048C46.4116 21.2336 46.5472 23.474 46.3575 25.6987C45.9986 29.6694 44.6437 33.4858 42.4178 36.7956V36.7883ZM32.3389 20.2505C32.1758 20.3011 32.0001 20.2934 31.8421 20.2285V20.2359C31.6638 20.0757 31.5342 19.8688 31.468 19.6387C31.4018 19.4086 31.4016 19.1645 31.4675 18.9343C31.4672 18.5467 31.3653 18.166 31.1721 17.8298C30.9789 17.4937 30.701 17.2138 30.366 17.018C30.8725 17.0689 31.3519 17.2711 31.7416 17.5981C32.1313 17.9251 32.4133 18.3618 32.5507 18.8512C32.9423 19.769 33.2361 21.1732 32.4038 21.9566C32.6231 21.5711 32.6874 21.1167 32.5837 20.6856C32.5608 20.5661 32.5306 20.4482 32.4932 20.3324C32.4932 20.2041 32.4418 20.1772 32.3389 20.2505ZM31.4945 18.6605V18.6695C31.494 18.6654 31.4945 18.6605 31.4945 18.6605ZM31.4945 18.6695C31.5014 18.5826 31.504 18.5402 31.4945 18.6728V18.6695ZM31.4943 18.7033L31.4948 18.6971L31.4969 18.6752C31.4964 18.675 31.4948 18.6734 31.4945 18.6728V18.6899L31.4943 18.7033ZM31.4943 18.7033C31.4905 18.7438 31.4874 18.7891 31.4839 18.8289C31.4787 18.8884 31.4736 18.9355 31.4736 18.9355C31.4771 18.8959 31.4807 18.8605 31.4839 18.8289C31.4891 18.7779 31.4933 18.7367 31.4943 18.7033Z" fill="#DE0A36"/>
</svg>
